<svg width="1431" height="1431" viewBox="0 0 1431 1431" fill="none" xmlns="http://www.w3.org/2000/svg">
<g opacity="0.1">
<path d="M386.496 772.728C377.982 723.307 380.465 672.617 393.769 624.264C407.072 575.912 430.87 531.086 463.467 492.976" stroke="white" stroke-width="56"/>
<path d="M506.565 450.789C566.145 401.991 640.479 374.781 717.482 373.583" stroke="white" stroke-width="56"/>
<path d="M766.251 376.32C852.924 387.449 932.025 431.403 987.252 499.123C1042.48 566.843 1069.62 653.169 1063.09 740.309" stroke="white" stroke-width="56"/>
<path d="M1054.89 793.292C1045.77 831.899 1029.98 868.62 1008.24 901.804" stroke="white" stroke-width="56"/>
<path d="M964.364 955.822C925.698 994.575 878.276 1023.46 826.101 1040.03" stroke="white" stroke-width="56"/>
<path d="M767.379 1053.12C677.65 1064.94 586.898 1040.64 515.088 985.552" stroke="white" stroke-width="56"/>
<path d="M477.041 951.559C440.475 913.605 413.197 867.697 397.344 817.435" stroke="white" stroke-width="56"/>
</g>
<g opacity="0.13">
<path d="M889.202 576.269C909.559 600.724 924.276 629.365 932.305 660.155C940.335 690.944 941.479 723.125 935.658 754.407" stroke="white" stroke-width="56"/>
<path d="M925.36 791.261C908.102 836.976 875.889 875.51 833.957 900.597" stroke="white" stroke-width="56"/>
<path d="M806.291 914.565C755.135 935.946 697.726 936.889 645.896 917.198C594.066 897.507 551.764 858.683 527.71 808.728" stroke="white" stroke-width="56"/>
<path d="M515.405 777.014C508.171 752.905 505.197 727.719 506.616 702.588" stroke="white" stroke-width="56"/>
<path d="M513.587 658.987C522.539 625.427 539.434 594.512 562.846 568.853" stroke="white" stroke-width="56"/>
<path d="M590.96 543.032C636.514 508.068 694.091 492.632 751.025 500.12" stroke="white" stroke-width="56"/>
<path d="M782.715 506.729C814.849 515.984 844.402 532.555 869.058 555.144" stroke="white" stroke-width="56"/>
</g>
<g opacity="0.03">
<path d="M1149.25 517.969C1178.17 580.64 1192.93 648.916 1192.47 717.938C1192 786.96 1176.34 855.032 1146.57 917.31" stroke="white" stroke-width="56"/>
<path d="M1104.3 988.749C1042.48 1074.85 953.347 1137.5 851.4 1166.53" stroke="white" stroke-width="56"/>
<path d="M785.589 1180.26C666.396 1196.34 545.576 1166.08 448.03 1095.73C350.484 1025.37 283.646 920.269 261.291 802.092" stroke="white" stroke-width="56"/>
<path d="M253.314 728.733C251.693 674.154 259.602 619.712 276.684 567.85" stroke="white" stroke-width="56"/>
<path d="M315.769 480.406C353.369 415.111 406.127 359.821 469.588 319.201" stroke="white" stroke-width="56"/>
<path d="M542.994 280.883C658.074 233.198 787.383 233.181 902.475 280.835" stroke="white" stroke-width="56"/>
<path d="M965.166 312.475C1027.3 349.907 1079.92 401.223 1118.9 462.398" stroke="white" stroke-width="56"/>
</g>
<g opacity="0.02">
<path d="M932.985 144.281C1016.83 175.17 1092.83 224.159 1155.58 287.76C1218.34 351.362 1266.3 428.014 1296.07 512.261" stroke="white" stroke-width="56"/>
<path d="M1322.77 616.342C1344.99 751.744 1320.75 890.68 1254 1010.56" stroke="white" stroke-width="56"/>
<path d="M1206.33 1083.37C1111.95 1207.19 973.664 1290.09 819.975 1314.98C666.285 1339.86 508.906 1304.84 380.271 1217.13" stroke="white" stroke-width="56"/>
<path d="M305.821 1157.28C254.38 1108.81 211.785 1051.74 179.951 988.631" stroke="white" stroke-width="56"/>
<path d="M135.686 872.814C110.336 778.63 108.018 679.729 128.925 584.461" stroke="white" stroke-width="56"/>
<path d="M161.043 482.195C222.731 333.21 341.077 214.832 490.046 153.104" stroke="white" stroke-width="56"/>
<path d="M576.39 124.682C667.527 102.071 762.663 100.877 854.339 121.193" stroke="white" stroke-width="56"/>
</g>
</svg>
