<svg width="24" height="24" viewBox="0 0 24 24" fill="none" xmlns="http://www.w3.org/2000/svg">
<path d="M18 12C18 15.3137 15.3137 18 12 18C8.68629 18 6 15.3137 6 12C6 8.68628 8.68629 6 12 6C15.3137 6 18 8.68628 18 12Z" fill="#FBA367"/>
<path fill-rule="evenodd" clip-rule="evenodd" d="M9.92731 17.6324C12.2196 16.7885 13.8546 14.5852 13.8546 12C13.8546 9.41486 12.2196 7.21155 9.92731 6.36771C10.5733 6.1299 11.2715 6.00006 12 6.00006C15.3137 6.00006 18 8.68634 18 12C18 15.3137 15.3137 18 12 18C11.2715 18 10.5733 17.8702 9.92731 17.6324Z" fill="#EF6100"/>
<path fill-rule="evenodd" clip-rule="evenodd" d="M20.2603 9.84588C19.9437 8.63197 19.3635 7.50275 18.5609 6.53857L19.6856 5.60233C20.6258 6.73178 21.3055 8.05458 21.6764 9.47659C22.0472 10.8986 22.1001 12.3849 21.8312 13.8296L20.3925 13.5619C20.622 12.3286 20.5769 11.0598 20.2603 9.84588Z" fill="white"/>
<path fill-rule="evenodd" clip-rule="evenodd" d="M16.3828 19.3256C18.036 18.3365 19.3061 16.8173 19.9865 15.0149L21.3556 15.5317C20.5585 17.6431 19.0708 19.4227 17.1341 20.5814L16.3828 19.3256Z" fill="white"/>
<path fill-rule="evenodd" clip-rule="evenodd" d="M4.30866 15.7036C5.25703 17.6731 6.92482 19.2037 8.96828 19.9801C11.0118 20.7564 13.2752 20.7193 15.2921 19.8763L15.8564 21.2265C13.4938 22.214 10.8423 22.2575 8.44856 21.3481C6.05478 20.4387 4.10109 18.6456 2.99014 16.3384L4.30866 15.7036Z" fill="white"/>
<path fill-rule="evenodd" clip-rule="evenodd" d="M3.47699 11.5189C3.42105 12.5097 3.53831 13.5027 3.8235 14.4532L2.42182 14.8738C2.08774 13.7603 1.95037 12.5971 2.0159 11.4364L3.47699 11.5189Z" fill="white"/>
<path fill-rule="evenodd" clip-rule="evenodd" d="M5.6939 6.24619C4.77086 7.25782 4.10476 8.47667 3.7518 9.79984L2.33783 9.42267C2.75129 7.87266 3.53158 6.44487 4.61285 5.25983L5.6939 6.24619Z" fill="white"/>
<path fill-rule="evenodd" clip-rule="evenodd" d="M13.1131 3.53633C10.8684 3.24112 8.59834 3.8497 6.80234 5.22819L5.91132 4.06731C8.0152 2.4525 10.6744 1.73959 13.3039 2.08542L13.1131 3.53633Z" fill="white"/>
<path fill-rule="evenodd" clip-rule="evenodd" d="M17.7667 5.70573C16.7946 4.81512 15.6294 4.16176 14.3625 3.79689L14.7675 2.39064C16.2516 2.81806 17.6165 3.58342 18.7553 4.62671L17.7667 5.70573Z" fill="white"/>
</svg>
