<svg width="182" height="43" viewBox="0 0 182 43" fill="none" xmlns="http://www.w3.org/2000/svg">
<path d="M35.3017 21.5068C35.3017 29.1253 29.1258 35.3012 21.5073 35.3012C13.8889 35.3012 7.71289 29.1253 7.71289 21.5068C7.71289 13.8884 13.8889 7.7124 21.5073 7.7124C29.1258 7.7124 35.3017 13.8884 35.3017 21.5068Z" fill="url(#paint0_linear_1300_7188)"/>
<path fill-rule="evenodd" clip-rule="evenodd" d="M42.713 23.918C42.6154 24.7763 41.7913 25.3344 40.9424 25.1743C40.0936 25.0141 39.5424 24.1961 39.6292 23.3366C39.845 21.199 39.6814 19.0359 39.1416 16.9478C38.6018 14.8598 37.6965 12.8884 36.4717 11.1232C35.9793 10.4135 36.065 9.43087 36.7299 8.87934C37.3947 8.32782 38.386 8.41664 38.8874 9.12011C40.4011 11.244 41.5153 13.6312 42.1703 16.1649C42.8253 18.6985 43.0076 21.3266 42.713 23.918Z" fill="white"/>
<path fill-rule="evenodd" clip-rule="evenodd" d="M33.726 4.00821C34.4343 4.50278 34.5326 5.49315 33.9875 6.1633C33.4424 6.83346 32.4607 6.92862 31.7462 6.443C30.6992 5.73132 29.5808 5.13072 28.4092 4.65098C27.6098 4.32364 27.1469 3.45267 27.4044 2.62811C27.662 1.80355 28.5419 1.33851 29.3454 1.65577C30.8923 2.26655 32.3625 3.05607 33.726 4.00821Z" fill="white"/>
<path fill-rule="evenodd" clip-rule="evenodd" d="M22.207 0.175804C23.0704 0.204158 23.6929 0.98071 23.6014 1.8397C23.51 2.6987 22.7388 3.31381 21.8752 3.29633C18.3863 3.22571 14.9491 4.15944 11.9755 5.98564C11.2394 6.43772 10.263 6.29733 9.74949 5.60269C9.23596 4.90805 9.38003 3.92324 10.1104 3.46193C13.7222 1.18065 17.9373 0.0355849 22.207 0.175804Z" fill="white"/>
<path fill-rule="evenodd" clip-rule="evenodd" d="M4.74737 8.29286C5.28222 7.6145 6.27664 7.57381 6.91402 8.15689C7.5514 8.73997 7.5894 9.7256 7.06314 10.4106C5.92218 11.8958 5.01705 13.5482 4.37981 15.3094C4.08588 16.1217 3.23485 16.6203 2.40032 16.3971C1.56579 16.174 1.06468 15.3141 1.34836 14.4981C2.12821 12.2551 3.27705 10.1577 4.74737 8.29286Z" fill="white"/>
<path fill-rule="evenodd" clip-rule="evenodd" d="M0.168212 21.8938C0.152547 21.0301 0.896382 20.3689 1.75892 20.4165C2.62146 20.4641 3.27505 21.2028 3.30158 22.0663C3.33518 23.1594 3.46715 24.2472 3.6959 25.3166C3.87659 26.1614 3.41859 27.0349 2.59246 27.2874C1.76633 27.5399 0.885962 27.0757 0.694653 26.2333C0.371112 24.8086 0.194704 23.3545 0.168212 21.8938Z" fill="white"/>
<path fill-rule="evenodd" clip-rule="evenodd" d="M3.47107 32.9172C3.00925 32.1871 3.30161 31.2357 4.0635 30.8286C4.82539 30.4214 5.76755 30.7135 6.23853 31.4377C8.32182 34.6409 11.3689 37.12 14.9591 38.5033C18.5494 39.8865 22.4721 40.0926 26.1661 39.1152C27.0012 38.8942 27.8958 39.3098 28.1876 40.1229C28.4794 40.936 28.0578 41.8376 27.2255 42.0691C22.8217 43.2939 18.1255 43.0756 13.8345 41.4224C9.54347 39.7692 5.91472 36.7801 3.47107 32.9172Z" fill="white"/>
<path fill-rule="evenodd" clip-rule="evenodd" d="M33.7978 38.955C33.0916 39.4525 32.1269 39.2076 31.6825 38.4669C31.238 37.7261 31.483 36.7706 32.1829 36.2643C34.502 34.5866 36.3934 32.3854 37.7029 29.8403C38.0981 29.0721 39.0059 28.6862 39.8051 29.0141C40.6043 29.3419 40.9915 30.2588 40.606 31.0319C39.0281 34.1959 36.6883 36.9189 33.7978 38.955Z" fill="white"/>
<path d="M65.5718 27.1809H71.4019V30.6165H61.1211V12.3452H65.5718V27.1809Z" fill="white"/>
<path d="M80.1357 30.8247C78.7129 30.8247 77.4289 30.521 76.2837 29.9137C75.1558 29.3064 74.2622 28.4389 73.6029 27.311C72.9608 26.1831 72.6398 24.8644 72.6398 23.3548C72.6398 21.8626 72.9695 20.5525 73.6289 19.4247C74.2882 18.2795 75.1905 17.4032 76.3357 16.7959C77.4809 16.1886 78.765 15.885 80.1878 15.885C81.6106 15.885 82.8946 16.1886 84.0398 16.7959C85.185 17.4032 86.0873 18.2795 86.7467 19.4247C87.4061 20.5525 87.7357 21.8626 87.7357 23.3548C87.7357 24.8471 87.3974 26.1658 86.7207 27.311C86.0613 28.4389 85.1503 29.3064 83.9878 29.9137C82.8426 30.521 81.5586 30.8247 80.1357 30.8247ZM80.1357 26.9726C80.986 26.9726 81.7061 26.6603 82.296 26.0357C82.9033 25.411 83.207 24.5174 83.207 23.3548C83.207 22.1923 82.912 21.2987 82.322 20.674C81.7494 20.0494 81.038 19.737 80.1878 19.737C79.3202 19.737 78.6001 20.0494 78.0275 20.674C77.4549 21.2813 77.1686 22.1749 77.1686 23.3548C77.1686 24.5174 77.4462 25.411 78.0015 26.0357C78.5741 26.6603 79.2855 26.9726 80.1357 26.9726Z" fill="white"/>
<path d="M89.212 23.3548C89.212 21.8452 89.5156 20.5265 90.1229 19.3987C90.7476 18.2708 91.6065 17.4032 92.6996 16.7959C93.8101 16.1886 95.0768 15.885 96.4996 15.885C98.3216 15.885 99.8398 16.3621 101.054 17.3165C102.286 18.2708 103.093 19.6156 103.475 21.3507H98.738C98.3389 20.2402 97.5668 19.685 96.4216 19.685C95.606 19.685 94.9554 20.006 94.4695 20.648C93.9837 21.2726 93.7407 22.1749 93.7407 23.3548C93.7407 24.5347 93.9837 25.4457 94.4695 26.0877C94.9554 26.7124 95.606 27.0247 96.4216 27.0247C97.5668 27.0247 98.3389 26.4694 98.738 25.3589H103.475C103.093 27.0594 102.286 28.3955 101.054 29.3672C99.8225 30.3389 98.3042 30.8247 96.4996 30.8247C95.0768 30.8247 93.8101 30.521 92.6996 29.9137C91.6065 29.3064 90.7476 28.4389 90.1229 27.311C89.5156 26.1831 89.212 24.8644 89.212 23.3548Z" fill="white"/>
<path d="M104.971 23.3288C104.971 21.8366 105.248 20.5265 105.804 19.3987C106.376 18.2708 107.148 17.4032 108.12 16.7959C109.092 16.1886 110.176 15.885 111.373 15.885C112.397 15.885 113.291 16.0932 114.054 16.5096C114.835 16.9261 115.434 17.4726 115.85 18.1494V16.0932H120.301V30.6165H115.85V28.5603C115.416 29.237 114.809 29.7836 114.028 30.2C113.265 30.6165 112.371 30.8247 111.347 30.8247C110.168 30.8247 109.092 30.521 108.12 29.9137C107.148 29.2891 106.376 28.4128 105.804 27.285C105.248 26.1398 104.971 24.821 104.971 23.3288ZM115.85 23.3548C115.85 22.2443 115.538 21.3681 114.913 20.7261C114.306 20.0841 113.56 19.763 112.675 19.763C111.79 19.763 111.035 20.0841 110.41 20.7261C109.803 21.3507 109.5 22.2183 109.5 23.3288C109.5 24.4393 109.803 25.3242 110.41 25.9836C111.035 26.6256 111.79 26.9466 112.675 26.9466C113.56 26.9466 114.306 26.6256 114.913 25.9836C115.538 25.3416 115.85 24.4653 115.85 23.3548Z" fill="white"/>
<path d="M127.971 11.3562V30.6165H123.521V11.3562H127.971Z" fill="white"/>
<path d="M150.637 18.2274C150.637 19.2859 150.394 20.2576 149.908 21.1425C149.422 22.0101 148.676 22.7128 147.67 23.2507C146.664 23.7886 145.414 24.0576 143.922 24.0576H141.163V30.6165H136.712V12.3452H143.922C145.379 12.3452 146.611 12.5968 147.618 13.1C148.624 13.6032 149.379 14.2973 149.882 15.1822C150.385 16.0672 150.637 17.0822 150.637 18.2274ZM143.584 20.5178C144.434 20.5178 145.067 20.3183 145.484 19.9192C145.9 19.5201 146.108 18.9562 146.108 18.2274C146.108 17.4987 145.9 16.9347 145.484 16.5357C145.067 16.1366 144.434 15.937 143.584 15.937H141.163V20.5178H143.584Z" fill="white"/>
<path d="M152.305 27.229C152.865 26.7839 153.121 26.5779 153.071 26.6109C154.687 25.2757 155.956 24.1795 156.879 23.3223C157.819 22.4651 158.61 21.5667 159.253 20.6272C159.896 19.6876 160.217 18.7727 160.217 17.8826C160.217 17.2067 160.06 16.6792 159.747 16.3001C159.434 15.921 158.964 15.7314 158.338 15.7314C157.711 15.7314 157.217 15.9704 156.854 16.4485C156.508 16.91 156.335 17.5694 156.335 18.4265H152.255C152.288 17.0254 152.585 15.855 153.145 14.9154C153.722 13.9759 154.472 13.2835 155.395 12.8385C156.335 12.3934 157.374 12.1709 158.511 12.1709C160.473 12.1709 161.948 12.6736 162.937 13.6791C163.942 14.6847 164.445 15.9952 164.445 17.6106C164.445 19.3744 163.844 21.0145 162.64 22.5311C161.437 24.0311 159.904 25.4982 158.041 26.9323H164.717V30.3692H152.305V27.229Z" fill="white"/>
<path d="M181.004 18.2274C181.004 19.2859 180.762 20.2576 180.276 21.1425C179.79 22.0101 179.044 22.7128 178.037 23.2507C177.031 23.7886 175.782 24.0576 174.289 24.0576H171.53V30.6165H167.08V12.3452H174.289C175.747 12.3452 176.979 12.5968 177.985 13.1C178.992 13.6032 179.746 14.2973 180.25 15.1822C180.753 16.0672 181.004 17.0822 181.004 18.2274ZM173.951 20.5178C174.801 20.5178 175.435 20.3183 175.851 19.9192C176.267 19.5201 176.476 18.9562 176.476 18.2274C176.476 17.4987 176.267 16.9347 175.851 16.5357C175.435 16.1366 174.801 15.937 173.951 15.937H171.53V20.5178H173.951Z" fill="white"/>
<defs>
<linearGradient id="paint0_linear_1300_7188" x1="9.37773" y1="9.21869" x2="33.954" y2="31.9715" gradientUnits="userSpaceOnUse">
<stop stop-color="#FBA367"/>
<stop offset="1" stop-color="#EF6100"/>
</linearGradient>
</defs>
</svg>
